# xmcd CD database file
#
# Track frame offsets:
#	150
#	21516
#	43987
#	67086
#	90304
#	109116
#	124980
#	153807
#	169197
#
# Disc length: 2613 seconds
#
# Revision: 0
# Processed by: cddbd v1.4PL0 Copyright (c) Steve Scherf et al.
# Submitted via: CDex 1.50Beta7
#
DISCID=770a3309
DTITLE=Ayanna and The Soulmates - Looking For A Home Too
DYEAR=2002
DGENRE=Blues
TTITLE0=What Can I Do
TTITLE1=I've Been Watching You
TTITLE2=My Darling
TTITLE3=Thinking About You
TTITLE4=Broken Hearted Girl
TTITLE5=Tougher Than Tough
TTITLE6=That's What I Want To Do
TTITLE7=Ever Since
TTITLE8=Looking For A Home
EXTD=YEAR: 2002
EXTT0=
EXTT1=
EXTT2=
EXTT3=
EXTT4=
EXTT5=
EXTT6=
EXTT7=
EXTT8=
PLAYORDER=
